<svg version="1.1" xmlns="http://www.w3.org/2000/svg" xmlns:xlink="http://www.w3.org/1999/xlink" width="1012.285400390625" height="521"><defs/><g><g transform="translate(-10,-10) scale(1,1)"><rect fill="#C0C0C0" stroke="none" x="50.76513671875" y="484" width="91.33544921875" height="44" opacity="0.2"/></g><g transform="translate(-10,-10) scale(1,1)"><rect fill="#ffffff" stroke="none" x="43.76513671875" y="477" width="91.33544921875" height="44"/></g><g transform="translate(-10,-10) scale(1,1)"><path fill="none" stroke="#000000" d="M 43.76513671875 477 L 135.1005859375 477 L 135.1005859375 521 L 43.76513671875 521 L 43.76513671875 477 Z Z" stroke-miterlimit="10"/></g><g transform="translate(-10,-10) scale(1,1)"><path fill="none" stroke="#000000" d="M 43.76513671875 502 L 135.1005859375 502" stroke-miterlimit="10"/></g><g transform="translate(-10,-10) scale(1,1)"><path fill="none" stroke="#000000" d="M 43.76513671875 512 L 135.1005859375 512" stroke-miterlimit="10"/></g><g transform="translate(-10,-10) scale(1,1)"><g><path fill="none" stroke="none"/><text fill="#000000" stroke="none" font-family="Arial" font-size="13px" font-style="normal" font-weight="bold" text-decoration="none" x="52.943359375" y="496.5">LoginActivity</text></g></g><g transform="translate(-10,-10) scale(1,1)"><rect fill="#C0C0C0" stroke="none" x="27" y="158" width="89.18359375" height="44" opacity="0.2"/></g><g transform="translate(-10,-10) scale(1,1)"><rect fill="#ffffff" stroke="none" x="20" y="151" width="89.18359375" height="44"/></g><g transform="translate(-10,-10) scale(1,1)"><path fill="none" stroke="#000000" d="M 20 151 L 109.18359375 151 L 109.18359375 195 L 20 195 L 20 151 Z Z" stroke-miterlimit="10"/></g><g transform="translate(-10,-10) scale(1,1)"><path fill="none" stroke="#000000" d="M 20 176 L 109.18359375 176" stroke-miterlimit="10"/></g><g transform="translate(-10,-10) scale(1,1)"><path fill="none" stroke="#000000" d="M 20 186 L 109.18359375 186" stroke-miterlimit="10"/></g><g transform="translate(-10,-10) scale(1,1)"><g><path fill="none" stroke="none"/><text fill="#000000" stroke="none" font-family="Arial" font-size="13px" font-style="normal" font-weight="bold" text-decoration="none" x="29.197265625" y="170.5">ProfilActivity</text></g></g><g transform="translate(-10,-10) scale(1,1)"><rect fill="#C0C0C0" stroke="none" x="43.7135009765625" y="233" width="184.9697265625" height="44" opacity="0.2"/></g><g transform="translate(-10,-10) scale(1,1)"><rect fill="#ffffff" stroke="none" x="36.7135009765625" y="226" width="184.9697265625" height="44"/></g><g transform="translate(-10,-10) scale(1,1)"><path fill="none" stroke="#000000" d="M 36.7135009765625 226 L 221.6832275390625 226 L 221.6832275390625 270 L 36.7135009765625 270 L 36.7135009765625 226 Z Z" stroke-miterlimit="10"/></g><g transform="translate(-10,-10) scale(1,1)"><path fill="none" stroke="#000000" d="M 36.7135009765625 251 L 221.6832275390625 251" stroke-miterlimit="10"/></g><g transform="translate(-10,-10) scale(1,1)"><path fill="none" stroke="#000000" d="M 36.7135009765625 261 L 221.6832275390625 261" stroke-miterlimit="10"/></g><g transform="translate(-10,-10) scale(1,1)"><g><path fill="none" stroke="none"/><text fill="#000000" stroke="none" font-family="Arial" font-size="13px" font-style="normal" font-weight="bold" text-decoration="none" x="91.2742919921875" y="245.5">HomeActivity</text></g></g><g transform="translate(-10,-10) scale(1,1)"><rect fill="#C0C0C0" stroke="none" x="490.050048828125" y="159" width="84.84814453125" height="44" opacity="0.2"/></g><g transform="translate(-10,-10) scale(1,1)"><rect fill="#ffffff" stroke="none" x="483.050048828125" y="152" width="84.84814453125" height="44"/></g><g transform="translate(-10,-10) scale(1,1)"><path fill="none" stroke="#000000" d="M 483.050048828125 152 L 567.898193359375 152 L 567.898193359375 196 L 483.050048828125 196 L 483.050048828125 152 Z Z" stroke-miterlimit="10"/></g><g transform="translate(-10,-10) scale(1,1)"><path fill="none" stroke="#000000" d="M 483.050048828125 177 L 567.898193359375 177" stroke-miterlimit="10"/></g><g transform="translate(-10,-10) scale(1,1)"><path fill="none" stroke="#000000" d="M 483.050048828125 187 L 567.898193359375 187" stroke-miterlimit="10"/></g><g transform="translate(-10,-10) scale(1,1)"><g><path fill="none" stroke="none"/><text fill="#000000" stroke="none" font-family="Arial" font-size="13px" font-style="normal" font-weight="bold" text-decoration="none" x="491.15869140625" y="171.5">ChatActivity</text></g></g><g transform="translate(-10,-10) scale(1,1)"><rect fill="#C0C0C0" stroke="none" x="378.1375732421875" y="233" width="151.29541015625" height="44" opacity="0.2"/></g><g transform="translate(-10,-10) scale(1,1)"><rect fill="#ffffff" stroke="none" x="371.1375732421875" y="226" width="151.29541015625" height="44"/></g><g transform="translate(-10,-10) scale(1,1)"><path fill="none" stroke="#000000" d="M 371.1375732421875 226 L 522.4329833984375 226 L 522.4329833984375 270 L 371.1375732421875 270 L 371.1375732421875 226 Z Z" stroke-miterlimit="10"/></g><g transform="translate(-10,-10) scale(1,1)"><path fill="none" stroke="#000000" d="M 371.1375732421875 251 L 522.4329833984375 251" stroke-miterlimit="10"/></g><g transform="translate(-10,-10) scale(1,1)"><path fill="none" stroke="#000000" d="M 371.1375732421875 261 L 522.4329833984375 261" stroke-miterlimit="10"/></g><g transform="translate(-10,-10) scale(1,1)"><g><path fill="none" stroke="none"/><text fill="#000000" stroke="none" font-family="Arial" font-size="13px" font-style="normal" font-weight="bold" text-decoration="none" x="380.3126220703125" y="245.5">ChatActivityOneToOne</text></g></g><g transform="translate(-10,-10) scale(1,1)"><rect fill="#C0C0C0" stroke="none" x="693.2515869140625" y="233" width="123.841796875" height="44" opacity="0.2"/></g><g transform="translate(-10,-10) scale(1,1)"><rect fill="#ffffff" stroke="none" x="686.2515869140625" y="226" width="123.841796875" height="44"/></g><g transform="translate(-10,-10) scale(1,1)"><path fill="none" stroke="#000000" d="M 686.2515869140625 226 L 810.0933837890625 226 L 810.0933837890625 270 L 686.2515869140625 270 L 686.2515869140625 226 Z Z" stroke-miterlimit="10"/></g><g transform="translate(-10,-10) scale(1,1)"><path fill="none" stroke="#000000" d="M 686.2515869140625 251 L 810.0933837890625 251" stroke-miterlimit="10"/></g><g transform="translate(-10,-10) scale(1,1)"><path fill="none" stroke="#000000" d="M 686.2515869140625 261 L 810.0933837890625 261" stroke-miterlimit="10"/></g><g transform="translate(-10,-10) scale(1,1)"><g><path fill="none" stroke="none"/><text fill="#000000" stroke="none" font-family="Arial" font-size="13px" font-style="normal" font-weight="bold" text-decoration="none" x="695.7916259765625" y="245.5">ChatActivityGroup</text></g></g><g transform="translate(-10,-10) scale(1,1)"><rect fill="#C0C0C0" stroke="none" x="559" y="233" width="101.4599609375" height="44" opacity="0.2"/></g><g transform="translate(-10,-10) scale(1,1)"><rect fill="#ffffff" stroke="none" x="552" y="226" width="101.4599609375" height="44"/></g><g transform="translate(-10,-10) scale(1,1)"><path fill="none" stroke="#000000" d="M 552 226 L 653.4599609375 226 L 653.4599609375 270 L 552 270 L 552 226 Z Z" stroke-miterlimit="10"/></g><g transform="translate(-10,-10) scale(1,1)"><path fill="none" stroke="#000000" d="M 552 251 L 653.4599609375 251" stroke-miterlimit="10"/></g><g transform="translate(-10,-10) scale(1,1)"><path fill="none" stroke="#000000" d="M 552 261 L 653.4599609375 261" stroke-miterlimit="10"/></g><g transform="translate(-10,-10) scale(1,1)"><g><path fill="none" stroke="none"/><text fill="#000000" stroke="none" font-family="Arial" font-size="13px" font-style="normal" font-weight="bold" text-decoration="none" x="561.19091796875" y="245.5">ChatActivityAll</text></g></g><g transform="translate(-10,-10) scale(1,1)"><path fill="none" stroke="#000000" d="M 447 225 Q 447 211 482 194" stroke-miterlimit="10"/></g><g transform="translate(-10,-10) scale(1,1)"><path fill="#FFFFFF" stroke="none" d="M 467.39549208285337 210.45321696501938 L 482 194 L 460.03887212759423 195.30723470419176"/></g><g transform="translate(-10,-10) scale(1,1)"><path fill="none" stroke="#000000" d="M 467.39549208285337 210.45321696501938 L 482 194 L 460.03887212759423 195.30723470419176 L 467.39549208285337 210.45321696501938" stroke-miterlimit="10"/></g><g transform="translate(-10,-10) scale(1,1)"><path fill="none" stroke="#000000" d="M 749 225 Q 749 211 569 181" stroke-miterlimit="10"/></g><g transform="translate(-10,-10) scale(1,1)"><path fill="#FFFFFF" stroke="none" d="M 590.4328823711502 176.03698143621867 L 569 181 L 587.6647205466185 192.64595238340942"/></g><g transform="translate(-10,-10) scale(1,1)"><path fill="none" stroke="#000000" d="M 590.4328823711502 176.03698143621867 L 569 181 L 587.6647205466185 192.64595238340942 L 590.4328823711502 176.03698143621867" stroke-miterlimit="10"/></g><g transform="translate(-10,-10) scale(1,1)"><path fill="none" stroke="#000000" d="M 604 225 Q 605 211 569 194" stroke-miterlimit="10"/></g><g transform="translate(-10,-10) scale(1,1)"><path fill="#FFFFFF" stroke="none" d="M 590.9741512237424 195.0661510193689 L 569 194 L 583.7841887255622 210.2919539566916"/></g><g transform="translate(-10,-10) scale(1,1)"><path fill="none" stroke="#000000" d="M 590.9741512237424 195.0661510193689 L 569 194 L 583.7841887255622 210.2919539566916 L 590.9741512237424 195.0661510193689" stroke-miterlimit="10"/></g><g transform="translate(-10,-10) scale(1,1)"><rect fill="#C0C0C0" stroke="none" x="147.18359375" y="158" width="107.24267578125" height="44" opacity="0.2"/></g><g transform="translate(-10,-10) scale(1,1)"><rect fill="#ffffff" stroke="none" x="140.18359375" y="151" width="107.24267578125" height="44"/></g><g transform="translate(-10,-10) scale(1,1)"><path fill="none" stroke="#000000" d="M 140.18359375 151 L 247.42626953125 151 L 247.42626953125 195 L 140.18359375 195 L 140.18359375 151 Z Z" stroke-miterlimit="10"/></g><g transform="translate(-10,-10) scale(1,1)"><path fill="none" stroke="#000000" d="M 140.18359375 176 L 247.42626953125 176" stroke-miterlimit="10"/></g><g transform="translate(-10,-10) scale(1,1)"><path fill="none" stroke="#000000" d="M 140.18359375 186 L 247.42626953125 186" stroke-miterlimit="10"/></g><g transform="translate(-10,-10) scale(1,1)"><g><path fill="none" stroke="none"/><text fill="#000000" stroke="none" font-family="Arial" font-size="13px" font-style="normal" font-weight="bold" text-decoration="none" x="149.733154296875" y="170.5">SettingsActivity</text></g></g><g transform="translate(-10,-10) scale(1,1)"><rect fill="#C0C0C0" stroke="none" x="305.006103515625" y="48.5" width="93.880859375" height="57" opacity="0.2"/></g><g transform="translate(-10,-10) scale(1,1)"><rect fill="#ffffff" stroke="none" x="298.006103515625" y="41.5" width="93.880859375" height="57"/></g><g transform="translate(-10,-10) scale(1,1)"><path fill="none" stroke="#000000" d="M 298.006103515625 41.5 L 391.886962890625 41.5 L 391.886962890625 98.5 L 298.006103515625 98.5 L 298.006103515625 41.5 Z Z" stroke-miterlimit="10"/></g><g transform="translate(-10,-10) scale(1,1)"><path fill="none" stroke="#000000" d="M 298.006103515625 66.5 L 391.886962890625 66.5" stroke-miterlimit="10"/></g><g transform="translate(-10,-10) scale(1,1)"><path fill="none" stroke="#000000" d="M 298.006103515625 89.5 L 391.886962890625 89.5" stroke-miterlimit="10"/></g><g transform="translate(-10,-10) scale(1,1)"><g><path fill="none" stroke="none"/><text fill="#000000" stroke="none" font-family="Arial" font-size="13px" font-style="normal" font-weight="bold" text-decoration="none" x="326.881103515625" y="61">Group</text></g></g><g transform="translate(-10,-10) scale(1,1)"><g><path fill="none" stroke="none"/><text fill="#000000" stroke="none" font-family="Arial" font-size="13px" font-style="normal" font-weight="normal" text-decoration="none" x="303.006103515625" y="84">-members: list</text></g></g><g transform="translate(-10,-10) scale(1,1)"><rect fill="#C0C0C0" stroke="none" x="429.886962890625" y="27" width="205.17431640625" height="100" opacity="0.2"/></g><g transform="translate(-10,-10) scale(1,1)"><rect fill="#ffffff" stroke="none" x="422.886962890625" y="20" width="205.17431640625" height="100"/></g><g transform="translate(-10,-10) scale(1,1)"><path fill="none" stroke="#000000" d="M 422.886962890625 20 L 628.061279296875 20 L 628.061279296875 120 L 422.886962890625 120 L 422.886962890625 20 Z Z" stroke-miterlimit="10"/></g><g transform="translate(-10,-10) scale(1,1)"><path fill="none" stroke="#000000" d="M 422.886962890625 45 L 628.061279296875 45" stroke-miterlimit="10"/></g><g transform="translate(-10,-10) scale(1,1)"><path fill="none" stroke="#000000" d="M 422.886962890625 83 L 628.061279296875 83" stroke-miterlimit="10"/></g><g transform="translate(-10,-10) scale(1,1)"><g><path fill="none" stroke="none"/><text fill="#000000" stroke="none" font-family="Arial" font-size="13px" font-style="normal" font-weight="bold" text-decoration="none" x="499.099609375" y="39.5">Message</text></g></g><g transform="translate(-10,-10) scale(1,1)"><g><path fill="none" stroke="none"/><text fill="#000000" stroke="none" font-family="Arial" font-size="13px" font-style="normal" font-weight="normal" text-decoration="none" x="427.886962890625" y="62.5">-text: string</text></g></g><g transform="translate(-10,-10) scale(1,1)"><g><path fill="none" stroke="none"/><text fill="#000000" stroke="none" font-family="Arial" font-size="13px" font-style="normal" font-weight="normal" text-decoration="none" x="427.886962890625" y="77.5">-date: Date</text></g></g><g transform="translate(-10,-10) scale(1,1)"><g><path fill="none" stroke="none"/><text fill="#000000" stroke="none" font-family="Arial" font-size="13px" font-style="normal" font-weight="normal" text-decoration="none" x="427.886962890625" y="100.5">+Message(text: string, date: Date)</text></g></g><g transform="translate(-10,-10) scale(1,1)"><rect fill="#C0C0C0" stroke="none" x="666.061279296875" y="41" width="72.2353515625" height="87" opacity="0.2"/></g><g transform="translate(-10,-10) scale(1,1)"><rect fill="#ffffff" stroke="none" x="659.061279296875" y="34" width="72.2353515625" height="87"/></g><g transform="translate(-10,-10) scale(1,1)"><path fill="none" stroke="#000000" d="M 659.061279296875 34 L 731.296630859375 34 L 731.296630859375 121 L 659.061279296875 121 L 659.061279296875 34 Z Z" stroke-miterlimit="10"/></g><g transform="translate(-10,-10) scale(1,1)"><path fill="none" stroke="#000000" d="M 659.061279296875 59 L 731.296630859375 59" stroke-miterlimit="10"/></g><g transform="translate(-10,-10) scale(1,1)"><path fill="none" stroke="#000000" d="M 659.061279296875 112 L 731.296630859375 112" stroke-miterlimit="10"/></g><g transform="translate(-10,-10) scale(1,1)"><g><path fill="none" stroke="none"/><text fill="#000000" stroke="none" font-family="Arial" font-size="13px" font-style="normal" font-weight="bold" text-decoration="none" x="681.455322265625" y="53.5">User</text></g></g><g transform="translate(-10,-10) scale(1,1)"><g><path fill="none" stroke="none"/><text fill="#000000" stroke="none" font-family="Arial" font-size="13px" font-style="normal" font-weight="normal" text-decoration="none" x="664.061279296875" y="76.5">-pseudo</text></g></g><g transform="translate(-10,-10) scale(1,1)"><g><path fill="none" stroke="none"/><text fill="#000000" stroke="none" font-family="Arial" font-size="13px" font-style="normal" font-weight="normal" text-decoration="none" x="664.061279296875" y="91.5">-id</text></g></g><g transform="translate(-10,-10) scale(1,1)"><g><path fill="none" stroke="none"/><text fill="#000000" stroke="none" font-family="Arial" font-size="13px" font-style="normal" font-weight="normal" text-decoration="none" x="664.061279296875" y="106.5">-ip</text></g></g><g transform="translate(-10,-10) scale(1,1)"><rect fill="#C0C0C0" stroke="none" x="769.296630859375" y="41" width="249.98876953125" height="72" opacity="0.2"/></g><g transform="translate(-10,-10) scale(1,1)"><rect fill="#ffffff" stroke="none" x="762.296630859375" y="34" width="249.98876953125" height="72"/></g><g transform="translate(-10,-10) scale(1,1)"><path fill="none" stroke="#000000" d="M 762.296630859375 34 L 1012.285400390625 34 L 1012.285400390625 106 L 762.296630859375 106 L 762.296630859375 34 Z Z" stroke-miterlimit="10"/></g><g transform="translate(-10,-10) scale(1,1)"><path fill="none" stroke="#000000" d="M 762.296630859375 59 L 1012.285400390625 59" stroke-miterlimit="10"/></g><g transform="translate(-10,-10) scale(1,1)"><path fill="none" stroke="#000000" d="M 762.296630859375 69 L 1012.285400390625 69" stroke-miterlimit="10"/></g><g transform="translate(-10,-10) scale(1,1)"><g><path fill="none" stroke="none"/><text fill="#000000" stroke="none" font-family="Arial" font-size="13px" font-style="normal" font-weight="bold" text-decoration="none" x="863.452392578125" y="53.5">Network</text></g></g><g transform="translate(-10,-10) scale(1,1)"><g><path fill="none" stroke="none"/><text fill="#000000" stroke="none" font-family="Arial" font-size="13px" font-style="normal" font-weight="normal" text-decoration="none" x="767.296630859375" y="86.5">+send(message: Message, group: Group)</text></g></g><g transform="translate(-10,-10) scale(1,1)"><g><path fill="none" stroke="none"/><text fill="#000000" stroke="none" font-family="Arial" font-size="13px" font-style="normal" font-weight="normal" text-decoration="none" x="767.296630859375" y="101.5">+send(message: Message, user: User)</text></g></g><g transform="translate(-10,-10) scale(1,1)"><path fill="none" stroke="#000000" d="M 89 225 Q 65 211 65 196" stroke-miterlimit="10" stroke-dasharray="3"/></g><g transform="translate(-10,-10) scale(1,1)"><path fill="none" stroke="#000000" d="M 169 225 Q 194 211 194 196" stroke-miterlimit="10" stroke-dasharray="3"/></g><g transform="translate(-10,-10) scale(1,1)"><path fill="none" stroke="#000000" d="M 90 476 Q 90 462 125 271" stroke-miterlimit="10" stroke-dasharray="3"/></g><g transform="translate(-10,-10) scale(1,1)"><rect fill="#C0C0C0" stroke="none" x="179.07421875" y="484" width="91.36083984375" height="44" opacity="0.2"/></g><g transform="translate(-10,-10) scale(1,1)"><rect fill="#ffffff" stroke="none" x="172.07421875" y="477" width="91.36083984375" height="44"/></g><g transform="translate(-10,-10) scale(1,1)"><path fill="none" stroke="#000000" d="M 172.07421875 477 L 263.43505859375 477 L 263.43505859375 521 L 172.07421875 521 L 172.07421875 477 Z Z" stroke-miterlimit="10"/></g><g transform="translate(-10,-10) scale(1,1)"><path fill="none" stroke="#000000" d="M 172.07421875 502 L 263.43505859375 502" stroke-miterlimit="10"/></g><g transform="translate(-10,-10) scale(1,1)"><path fill="none" stroke="#000000" d="M 172.07421875 512 L 263.43505859375 512" stroke-miterlimit="10"/></g><g transform="translate(-10,-10) scale(1,1)"><g><path fill="none" stroke="none"/><text fill="#000000" stroke="none" font-family="Arial" font-size="13px" font-style="normal" font-weight="bold" text-decoration="none" x="179.465576171875" y="496.5">UsersListTab</text></g></g><g transform="translate(-10,-10) scale(1,1)"><rect fill="#C0C0C0" stroke="none" x="466.75048828125" y="484" width="101.447265625" height="44" opacity="0.2"/></g><g transform="translate(-10,-10) scale(1,1)"><rect fill="#ffffff" stroke="none" x="459.75048828125" y="477" width="101.447265625" height="44"/></g><g transform="translate(-10,-10) scale(1,1)"><path fill="none" stroke="#000000" d="M 459.75048828125 477 L 561.19775390625 477 L 561.19775390625 521 L 459.75048828125 521 L 459.75048828125 477 Z Z" stroke-miterlimit="10"/></g><g transform="translate(-10,-10) scale(1,1)"><path fill="none" stroke="#000000" d="M 459.75048828125 502 L 561.19775390625 502" stroke-miterlimit="10"/></g><g transform="translate(-10,-10) scale(1,1)"><path fill="none" stroke="#000000" d="M 459.75048828125 512 L 561.19775390625 512" stroke-miterlimit="10"/></g><g transform="translate(-10,-10) scale(1,1)"><g><path fill="none" stroke="none"/><text fill="#000000" stroke="none" font-family="Arial" font-size="13px" font-style="normal" font-weight="bold" text-decoration="none" x="467.84326171875" y="496.5">GroupsListTab</text></g></g><g transform="translate(-10,-10) scale(1,1)"><rect fill="#C0C0C0" stroke="none" x="310.46142578125" y="484" width="125.2890625" height="44" opacity="0.2"/></g><g transform="translate(-10,-10) scale(1,1)"><rect fill="#ffffff" stroke="none" x="303.46142578125" y="477" width="125.2890625" height="44"/></g><g transform="translate(-10,-10) scale(1,1)"><path fill="none" stroke="#000000" d="M 303.46142578125 477 L 428.75048828125 477 L 428.75048828125 521 L 303.46142578125 521 L 303.46142578125 477 Z Z" stroke-miterlimit="10"/></g><g transform="translate(-10,-10) scale(1,1)"><path fill="none" stroke="#000000" d="M 303.46142578125 502 L 428.75048828125 502" stroke-miterlimit="10"/></g><g transform="translate(-10,-10) scale(1,1)"><path fill="none" stroke="#000000" d="M 303.46142578125 512 L 428.75048828125 512" stroke-miterlimit="10"/></g><g transform="translate(-10,-10) scale(1,1)"><g><path fill="none" stroke="none"/><text fill="#000000" stroke="none" font-family="Arial" font-size="13px" font-style="normal" font-weight="bold" text-decoration="none" x="311.9033203125" y="496.5">GlobalChannelTab</text></g></g><g transform="translate(-10,-10) scale(1,1)"><path fill="none" stroke="#000000" d="M 302 477 Q 261 462 143 271" stroke-miterlimit="10"/></g><g transform="translate(-10,-10) scale(1,1)"><path fill="#000000" stroke="none" d="M 151.92257966269966 277.43331735287313 L 143 271 L 144.76017425943044 281.8582589109138 L 154.5629295229566 289.71626727868403"/></g><g transform="translate(-10,-10) scale(1,1)"><path fill="none" stroke="#000000" d="M 151.92257966269966 277.43331735287313 L 143 271 L 144.76017425943044 281.8582589109138 L 154.5629295229566 289.71626727868403 L 151.92257966269966 277.43331735287313" stroke-miterlimit="10"/></g><g transform="translate(-10,-10) scale(1,1)"><g><path fill="none" stroke="none"/><text fill="#000000" stroke="none" font-family="Arial" font-size="13px" font-style="normal" font-weight="normal" text-decoration="none" x="127" y="445">+globalChannelTab</text></g></g><g transform="translate(-10,-10) scale(1,1)"><path fill="none" stroke="#000000" d="M 192 476 Q 176 462 134 271" stroke-miterlimit="10"/></g><g transform="translate(-10,-10) scale(1,1)"><path fill="#000000" stroke="none" d="M 140.29387162481012 280.02148435516074 L 134 271 L 132.0712865419183 281.82959206972333 L 138.72481315270952 292.48665028970277"/></g><g transform="translate(-10,-10) scale(1,1)"><path fill="none" stroke="#000000" d="M 140.29387162481012 280.02148435516074 L 134 271 L 132.0712865419183 281.82959206972333 L 138.72481315270952 292.48665028970277 L 140.29387162481012 280.02148435516074" stroke-miterlimit="10"/></g><g transform="translate(-10,-10) scale(1,1)"><g><path fill="none" stroke="none"/><text fill="#000000" stroke="none" font-family="Arial" font-size="13px" font-style="normal" font-weight="normal" text-decoration="none" x="63" y="412">+usersListTab</text></g></g><g transform="translate(-10,-10) scale(1,1)"><path fill="none" stroke="#000000" d="M 459 479 Q 417 462 160 271" stroke-miterlimit="10"/></g><g transform="translate(-10,-10) scale(1,1)"><path fill="#000000" stroke="none" d="M 170.66768482381508 273.6833748340002 L 160 271 L 165.64575973689358 280.44062482006734 L 177.65754515241343 284.12292266191037"/></g><g transform="translate(-10,-10) scale(1,1)"><path fill="none" stroke="#000000" d="M 170.66768482381508 273.6833748340002 L 160 271 L 165.64575973689358 280.44062482006734 L 177.65754515241343 284.12292266191037 L 170.66768482381508 273.6833748340002" stroke-miterlimit="10"/></g><g transform="translate(-10,-10) scale(1,1)"><g><path fill="none" stroke="none"/><text fill="#000000" stroke="none" font-family="Arial" font-size="13px" font-style="normal" font-weight="normal" text-decoration="none" x="288" y="404">+groupsListTab</text></g></g><g transform="translate(-10,-10) scale(1,1)"><path fill="none" stroke="#000000" d="M 430 489 Q 605 462 602 271" stroke-miterlimit="10" stroke-dasharray="3"/></g><g transform="translate(-10,-10) scale(1,1)"><path fill="none" stroke="#000000" d="M 264 491 Q 447 462 446 271" stroke-miterlimit="10" stroke-dasharray="3"/></g><g transform="translate(-10,-10) scale(1,1)"><path fill="none" stroke="#000000" d="M 562 491 Q 749 462 748 271" stroke-miterlimit="10" stroke-dasharray="3"/></g><g transform="translate(-10,-10) scale(1,1)"><path fill="none" stroke="#000000" d="M 526 151 Q 526 136 526 121" stroke-miterlimit="10"/></g><g transform="translate(-10,-10) scale(1,1)"><path fill="#FFFFFF" stroke="none" d="M 530.209517756016 131.16267485762415 L 526 121 L 521.790482243984 131.16267485762415 L 526 143"/></g><g transform="translate(-10,-10) scale(1,1)"><path fill="none" stroke="#000000" d="M 530.209517756016 131.16267485762415 L 526 121 L 521.790482243984 131.16267485762415 L 526 143 L 530.209517756016 131.16267485762415" stroke-miterlimit="10"/></g><g transform="translate(-10,-10) scale(1,1)"><g><path fill="none" stroke="none"/><text fill="#000000" stroke="none" font-family="Arial" font-size="13px" font-style="normal" font-weight="normal" text-decoration="none" x="471" y="149">+messages</text></g></g><g transform="translate(-10,-10) scale(1,1)"><path fill="none" stroke="#000000" d="M 658 75 L 629 74" stroke-miterlimit="10"/></g><g transform="translate(-10,-10) scale(1,1)"><path fill="#000000" stroke="none" d="M 639.3017077842497 70.1432116044656 L 629 74 L 639.0115686601292 78.55724620396126 L 650.9869319857789 74.75817006847514"/></g><g transform="translate(-10,-10) scale(1,1)"><path fill="none" stroke="#000000" d="M 639.3017077842497 70.1432116044656 L 629 74 L 639.0115686601292 78.55724620396126 L 650.9869319857789 74.75817006847514 L 639.3017077842497 70.1432116044656" stroke-miterlimit="10"/></g><g transform="translate(-10,-10) scale(1,1)"><g><path fill="none" stroke="none"/><text fill="#000000" stroke="none" font-family="Arial" font-size="13px" font-style="normal" font-weight="normal" text-decoration="none" x="626" y="96">+user</text></g></g></g></svg>